<?xml version="1.0" encoding="UTF-8"?> <svg xmlns="http://www.w3.org/2000/svg" xmlns:v="https://vecta.io/nano" height="512" viewBox="0 0 64 64" width="512"><path d="M16 44h6v6h-6zm0-12h6v6h-6zm0-12h6v6h-6zm0-12h6v6h-6z" fill="#5a80b8"></path><path d="M22 8h-6v6h6zm0 12h-6v6h6zM11 4h42a1 1 0 0 1 1 1v49a1 1 0 0 1-1 1H11a1 1 0 0 1-1-1V5a1 1 0 0 1 1-1zm11 46v-6h-6v6zm0-12v-6h-6v6z" fill="#f5f5f5"></path><circle cx="32" cy="59" fill="#324f78" r="2"></circle><path d="M56.99 4.85A3.987 3.987 0 0 0 53 1H11a4 4 0 0 0-4 4v54a4 4 0 0 0 4 4h42a4 4 0 0 0 4-4V5a.757.757 0 0 0-.01-.15zM32 61a2 2 0 1 1 2-2 2.006 2.006 0 0 1-2 2zm22-7a1 1 0 0 1-1 1H11a1 1 0 0 1-1-1V5a1 1 0 0 1 1-1h42a1 1 0 0 1 1 1z" fill="#a9aba6"></path><path d="M53 3H11a2 2 0 0 0-2 2v49a2 2 0 0 0 2 2h42a2 2 0 0 0 2-2V5a2 2 0 0 0-2-2zm1 51a1 1 0 0 1-1 1H11a1 1 0 0 1-1-1V5a1 1 0 0 1 1-1h42a1 1 0 0 1 1 1zm-1 7H11a4 4 0 0 1-4-4v2a4 4 0 0 0 4 4h42a4 4 0 0 0 4-4v-2a4 4 0 0 1-4 4z" fill="#8b8c88"></path><path d="M20.285 38H16v-6h1.315a24.882 24.882 0 0 1-1.228-6H16V4h-5a1 1 0 0 0-1 1v49a1 1 0 0 0 1 1h42a1 1 0 0 0 1-1v-5H41a24.976 24.976 0 0 1-20.715-11zM22 50h-6v-6h6z" fill="#e3e3e3"></path><rect fill="#c2c4be" height="2" rx="1" width="32" x="16" y="1"></rect><path d="M32 56a3 3 0 1 0 3 3 3 3 0 0 0-3-3zm0 5a2 2 0 1 1 2-2 2.006 2.006 0 0 1-2 2z" fill="#8b8c88"></path><path d="M52 9a1 1 0 0 1-1-1V7h-1a1 1 0 0 1 0-2h2a1 1 0 0 1 1 1v2a1 1 0 0 1-1 1zm0 4a1 1 0 0 1-1-1v-1a1 1 0 0 1 2 0v1a1 1 0 0 1-1 1z" fill="#fff"></path><path d="M16 14.5a.5.5 0 0 1-.354-.854l8-8a.501.501 0 0 1 .708.708l-8 8A.5.5 0 0 1 16 14.5zm0 12a.5.5 0 0 1-.354-.854l8-8a.501.501 0 0 1 .708.708l-8 8A.5.5 0 0 1 16 26.5z" fill="#eba800"></path><path d="M28 7h20v2H28zm0 3h20v2H28zm0 3h20v2H28zm0 6h20v2H28zm0 3h20v2H28zm0 3h20v2H28zm0 6h11v2H28zm0 3h11v2H28zm0 3h11v2H28zm0 6h11v2H28zm0 3h11v2H28z" fill="#656663"></path><path d="M28 49h11v2H28z" fill="#929490"></path><path d="M44.95 51.36L41 55l.3-5.3z" fill="#c2c4be"></path><path d="M63 12.98a1.9 1.9 0 0 1-.19.83L44.95 51.36 41.3 49.7l17.86-37.56a2.023 2.023 0 0 1 2.68-.95A1.971 1.971 0 0 1 63 12.98z" fill="#e2e6de"></path><path d="m41 54.999 3.95-3.639-1.818-.827z" fill="#a9aba6"></path><path d="M61.84 11.19a2.025 2.025 0 0 0-1.2-.158 1.99 1.99 0 0 1 .31 2.176L43.132 50.533l1.818.827 17.86-37.55a1.9 1.9 0 0 0 .19-.83 1.971 1.971 0 0 0-1.16-1.79z" fill="#cccfc8"></path><path d="M48.499 49L54 37.435v-5.102L46.072 49z" fill="#8b8c88"></path><g fill="#777874"><path d="M54 32.333v5.102l3-6.307v-5.103zM42 58l3.255-3H42.17z"></path><path d="M48.499 49h-2.427l-1.122 2.36-2.716 2.502L42.17 55h3.085l.695-.64z"></path></g></svg> 